<?xml version="1.0" encoding="UTF-8" standalone="no"?>
<!DOCTYPE svg PUBLIC "-//W3C//DTD SVG 1.1//EN"
 "http://www.w3.org/Graphics/SVG/1.1/DTD/svg11.dtd">
<!-- Generated by graphviz version 2.47.0 (20210316.0004)
 -->
<!-- Title: dependencies Pages: 1 -->
<svg width="504pt" height="211pt"
 viewBox="0.00 0.00 504.00 211.00" xmlns="http://www.w3.org/2000/svg" xmlns:xlink="http://www.w3.org/1999/xlink">
<g id="graph0" class="graph" transform="scale(1 1) rotate(0) translate(4 207)">
<title>dependencies</title>
<polygon fill="white" stroke="transparent" points="-4,4 -4,-207 500,-207 500,4 -4,4"/>
<text text-anchor="start" x="227.01" y="-42.4" font-family="Times-12" font-weight="bold" font-size="14.00">Legend</text>
<polygon fill="#ffffb3" stroke="transparent" points="14,-10 14,-30 34,-30 34,-10 14,-10"/>
<text text-anchor="start" x="37.63" y="-15.4" font-family="Times-12" font-size="14.00"> &#160;Declarations</text>
<polygon fill="#8dd3c7" stroke="transparent" points="127,-10 127,-30 147,-30 147,-10 127,-10"/>
<text text-anchor="start" x="150.73" y="-15.4" font-family="Times-12" font-size="14.00"> &#160;Module</text>
<polygon fill="#80b1d3" stroke="transparent" points="213,-10 213,-30 233,-30 233,-10 213,-10"/>
<text text-anchor="start" x="236.78" y="-15.4" font-family="Times-12" font-size="14.00"> &#160;Bootstrap</text>
<polygon fill="#fdb462" stroke="transparent" points="310,-10 310,-30 330,-30 330,-10 310,-10"/>
<text text-anchor="start" x="333.67" y="-15.4" font-family="Times-12" font-size="14.00"> &#160;Providers</text>
<polygon fill="#fb8072" stroke="transparent" points="406,-10 406,-30 426,-30 426,-10 406,-10"/>
<text text-anchor="start" x="429.73" y="-15.4" font-family="Times-12" font-size="14.00"> &#160;Exports</text>
<g id="clust1" class="cluster">
<title>cluster_IamModule</title>
<polygon fill="none" stroke="black" stroke-dasharray="1,5" points="11.5,-70 11.5,-195 484.5,-195 484.5,-70 11.5,-70"/>
</g>
<g id="clust6" class="cluster">
<title>cluster_IamModule_providers</title>
<polygon fill="none" stroke="black" points="266.5,-78 266.5,-130 476.5,-130 476.5,-78 266.5,-78"/>
</g>
<g id="clust3" class="cluster">
<title>cluster_IamModule_imports</title>
<polygon fill="none" stroke="black" points="19.5,-78 19.5,-130 258.5,-130 258.5,-78 19.5,-78"/>
</g>
<!-- PasswordModule -->
<g id="node1" class="node">
<title>PasswordModule</title>
<polygon fill="#8dd3c7" stroke="black" points="250.2,-122 247.2,-126 226.2,-126 223.2,-122 136.8,-122 136.8,-86 250.2,-86 250.2,-122"/>
<text text-anchor="middle" x="193.5" y="-99.8" font-family="Times,serif" font-size="14.00">PasswordModule</text>
</g>
<!-- IamModule -->
<g id="node3" class="node">
<title>IamModule</title>
<polygon fill="#8dd3c7" stroke="black" points="234.32,-187 231.32,-191 210.32,-191 207.32,-187 152.68,-187 152.68,-151 234.32,-151 234.32,-187"/>
<text text-anchor="middle" x="193.5" y="-164.8" font-family="Times,serif" font-size="14.00">IamModule</text>
</g>
<!-- PasswordModule&#45;&gt;IamModule -->
<g id="edge1" class="edge">
<title>PasswordModule&#45;&gt;IamModule</title>
<path fill="none" stroke="black" d="M193.5,-122.11C193.5,-122.11 193.5,-140.99 193.5,-140.99"/>
<polygon fill="black" stroke="black" points="190,-140.99 193.5,-150.99 197,-140.99 190,-140.99"/>
</g>
<!-- UsersModule -->
<g id="node2" class="node">
<title>UsersModule</title>
<polygon fill="#8dd3c7" stroke="black" points="119.42,-122 116.42,-126 95.42,-126 92.42,-122 27.58,-122 27.58,-86 119.42,-86 119.42,-122"/>
<text text-anchor="middle" x="73.5" y="-99.8" font-family="Times,serif" font-size="14.00">UsersModule</text>
</g>
<!-- UsersModule&#45;&gt;IamModule -->
<g id="edge2" class="edge">
<title>UsersModule&#45;&gt;IamModule</title>
<path fill="none" stroke="black" d="M73.5,-122.11C73.5,-141.34 73.5,-169 73.5,-169 73.5,-169 142.54,-169 142.54,-169"/>
<polygon fill="black" stroke="black" points="142.54,-172.5 152.54,-169 142.54,-165.5 142.54,-172.5"/>
</g>
<!-- AuthenticationService -->
<g id="node4" class="node">
<title>AuthenticationService</title>
<ellipse fill="#fdb462" stroke="black" cx="371.5" cy="-104" rx="97.27" ry="18"/>
<text text-anchor="middle" x="371.5" y="-99.8" font-family="Times,serif" font-size="14.00">AuthenticationService</text>
</g>
<!-- AuthenticationService&#45;&gt;IamModule -->
<g id="edge3" class="edge">
<title>AuthenticationService&#45;&gt;IamModule</title>
<path fill="none" stroke="black" d="M371.5,-122.11C371.5,-141.34 371.5,-169 371.5,-169 371.5,-169 244.34,-169 244.34,-169"/>
<polygon fill="black" stroke="black" points="244.34,-165.5 234.34,-169 244.34,-172.5 244.34,-165.5"/>
</g>
</g>
</svg>
