<?xml version="1.0" encoding="UTF-8" standalone="no"?>
<!DOCTYPE svg PUBLIC "-//W3C//DTD SVG 1.1//EN"
 "http://www.w3.org/Graphics/SVG/1.1/DTD/svg11.dtd">
<!-- Generated by graphviz version 2.47.0 (20210316.0004)
 -->
<!-- Title: dependencies Pages: 1 -->
<svg width="504pt" height="211pt"
 viewBox="0.00 0.00 504.00 211.00" xmlns="http://www.w3.org/2000/svg" xmlns:xlink="http://www.w3.org/1999/xlink">
<g id="graph0" class="graph" transform="scale(1 1) rotate(0) translate(4 207)">
<title>dependencies</title>
<polygon fill="white" stroke="transparent" points="-4,4 -4,-207 500,-207 500,4 -4,4"/>
<text text-anchor="start" x="227.01" y="-42.4" font-family="Times-12" font-weight="bold" font-size="14.00">Legend</text>
<polygon fill="#ffffb3" stroke="transparent" points="14,-10 14,-30 34,-30 34,-10 14,-10"/>
<text text-anchor="start" x="37.63" y="-15.4" font-family="Times-12" font-size="14.00"> &#160;Declarations</text>
<polygon fill="#8dd3c7" stroke="transparent" points="127,-10 127,-30 147,-30 147,-10 127,-10"/>
<text text-anchor="start" x="150.73" y="-15.4" font-family="Times-12" font-size="14.00"> &#160;Module</text>
<polygon fill="#80b1d3" stroke="transparent" points="213,-10 213,-30 233,-30 233,-10 213,-10"/>
<text text-anchor="start" x="236.78" y="-15.4" font-family="Times-12" font-size="14.00"> &#160;Bootstrap</text>
<polygon fill="#fdb462" stroke="transparent" points="310,-10 310,-30 330,-30 330,-10 310,-10"/>
<text text-anchor="start" x="333.67" y="-15.4" font-family="Times-12" font-size="14.00"> &#160;Providers</text>
<polygon fill="#fb8072" stroke="transparent" points="406,-10 406,-30 426,-30 426,-10 406,-10"/>
<text text-anchor="start" x="429.73" y="-15.4" font-family="Times-12" font-size="14.00"> &#160;Exports</text>
<g id="clust1" class="cluster">
<title>cluster_IamModule</title>
<polygon fill="none" stroke="black" stroke-dasharray="1,5" points="11.5,-70 11.5,-195 484.5,-195 484.5,-70 11.5,-70"/>
</g>
<g id="clust3" class="cluster">
<title>cluster_IamModule_imports</title>
<polygon fill="none" stroke="black" points="237.5,-78 237.5,-130 476.5,-130 476.5,-78 237.5,-78"/>
</g>
<g id="clust6" class="cluster">
<title>cluster_IamModule_providers</title>
<polygon fill="none" stroke="black" points="19.5,-78 19.5,-130 229.5,-130 229.5,-78 19.5,-78"/>
</g>
<!-- PasswordModule -->
<g id="node1" class="node">
<title>PasswordModule</title>
<polygon fill="#8dd3c7" stroke="black" points="468.2,-122 465.2,-126 444.2,-126 441.2,-122 354.8,-122 354.8,-86 468.2,-86 468.2,-122"/>
<text text-anchor="middle" x="411.5" y="-99.8" font-family="Times,serif" font-size="14.00">PasswordModule</text>
</g>
<!-- IamModule -->
<g id="node3" class="node">
<title>IamModule</title>
<polygon fill="#8dd3c7" stroke="black" points="332.32,-187 329.32,-191 308.32,-191 305.32,-187 250.68,-187 250.68,-151 332.32,-151 332.32,-187"/>
<text text-anchor="middle" x="291.5" y="-164.8" font-family="Times,serif" font-size="14.00">IamModule</text>
</g>
<!-- PasswordModule&#45;&gt;IamModule -->
<g id="edge1" class="edge">
<title>PasswordModule&#45;&gt;IamModule</title>
<path fill="none" stroke="black" d="M411.5,-122.11C411.5,-141.34 411.5,-169 411.5,-169 411.5,-169 342.46,-169 342.46,-169"/>
<polygon fill="black" stroke="black" points="342.46,-165.5 332.46,-169 342.46,-172.5 342.46,-165.5"/>
</g>
<!-- UsersModule -->
<g id="node2" class="node">
<title>UsersModule</title>
<polygon fill="#8dd3c7" stroke="black" points="337.42,-122 334.42,-126 313.42,-126 310.42,-122 245.58,-122 245.58,-86 337.42,-86 337.42,-122"/>
<text text-anchor="middle" x="291.5" y="-99.8" font-family="Times,serif" font-size="14.00">UsersModule</text>
</g>
<!-- UsersModule&#45;&gt;IamModule -->
<g id="edge2" class="edge">
<title>UsersModule&#45;&gt;IamModule</title>
<path fill="none" stroke="black" d="M291.5,-122.11C291.5,-122.11 291.5,-140.99 291.5,-140.99"/>
<polygon fill="black" stroke="black" points="288,-140.99 291.5,-150.99 295,-140.99 288,-140.99"/>
</g>
<!-- AuthenticationService -->
<g id="node4" class="node">
<title>AuthenticationService</title>
<ellipse fill="#fdb462" stroke="black" cx="124.5" cy="-104" rx="97.27" ry="18"/>
<text text-anchor="middle" x="124.5" y="-99.8" font-family="Times,serif" font-size="14.00">AuthenticationService</text>
</g>
<!-- AuthenticationService&#45;&gt;IamModule -->
<g id="edge3" class="edge">
<title>AuthenticationService&#45;&gt;IamModule</title>
<path fill="none" stroke="black" d="M124.5,-122.11C124.5,-141.34 124.5,-169 124.5,-169 124.5,-169 240.65,-169 240.65,-169"/>
<polygon fill="black" stroke="black" points="240.65,-172.5 250.65,-169 240.65,-165.5 240.65,-172.5"/>
</g>
</g>
</svg>
