<?xml version="1.0" encoding="UTF-8" standalone="no"?>
<!DOCTYPE svg PUBLIC "-//W3C//DTD SVG 1.1//EN"
 "http://www.w3.org/Graphics/SVG/1.1/DTD/svg11.dtd">
<!-- Generated by graphviz version 2.47.0 (20210316.0004)
 -->
<!-- Title: dependencies Pages: 1 -->
<svg width="2037pt" height="352pt"
 viewBox="0.00 0.00 2037.00 352.00" xmlns="http://www.w3.org/2000/svg" xmlns:xlink="http://www.w3.org/1999/xlink">
<g id="graph0" class="graph" transform="scale(1 1) rotate(0) translate(4 348)">
<title>dependencies</title>
<polygon fill="white" stroke="transparent" points="-4,4 -4,-348 2033,-348 2033,4 -4,4"/>
<text text-anchor="start" x="993.51" y="-42.4" font-family="Times-12" font-weight="bold" font-size="14.00">Legend</text>
<polygon fill="#ffffb3" stroke="transparent" points="780.5,-10 780.5,-30 800.5,-30 800.5,-10 780.5,-10"/>
<text text-anchor="start" x="804.13" y="-15.4" font-family="Times-12" font-size="14.00"> &#160;Declarations</text>
<polygon fill="#8dd3c7" stroke="transparent" points="893.5,-10 893.5,-30 913.5,-30 913.5,-10 893.5,-10"/>
<text text-anchor="start" x="917.23" y="-15.4" font-family="Times-12" font-size="14.00"> &#160;Module</text>
<polygon fill="#80b1d3" stroke="transparent" points="979.5,-10 979.5,-30 999.5,-30 999.5,-10 979.5,-10"/>
<text text-anchor="start" x="1003.28" y="-15.4" font-family="Times-12" font-size="14.00"> &#160;Bootstrap</text>
<polygon fill="#fdb462" stroke="transparent" points="1076.5,-10 1076.5,-30 1096.5,-30 1096.5,-10 1076.5,-10"/>
<text text-anchor="start" x="1100.17" y="-15.4" font-family="Times-12" font-size="14.00"> &#160;Providers</text>
<polygon fill="#fb8072" stroke="transparent" points="1172.5,-10 1172.5,-30 1192.5,-30 1192.5,-10 1172.5,-10"/>
<text text-anchor="start" x="1196.23" y="-15.4" font-family="Times-12" font-size="14.00"> &#160;Exports</text>
<g id="clust1" class="cluster">
<title>cluster_AppModule</title>
<polygon fill="none" stroke="black" stroke-dasharray="1,5" points="276,-70 276,-336 703,-336 703,-70 276,-70"/>
</g>
<g id="clust3" class="cluster">
<title>cluster_AppModule_imports</title>
<polygon fill="none" stroke="black" points="284,-78 284,-271 695,-271 695,-78 284,-78"/>
</g>
<g id="clust13" class="cluster">
<title>cluster_IamModule</title>
<polygon fill="none" stroke="black" stroke-dasharray="1,5" points="1577,-135 1577,-203 1941,-203 1941,-135 1577,-135"/>
</g>
<g id="clust15" class="cluster">
<title>cluster_IamModule_imports</title>
<polygon fill="none" stroke="black" points="1803,-143 1803,-195 1933,-195 1933,-143 1803,-143"/>
</g>
<g id="clust18" class="cluster">
<title>cluster_IamModule_providers</title>
<polygon fill="none" stroke="black" points="1585,-143 1585,-195 1795,-195 1795,-143 1585,-143"/>
</g>
<g id="clust19" class="cluster">
<title>cluster_PasswordModule</title>
<polygon fill="none" stroke="black" stroke-dasharray="1,5" points="1695,-211 1695,-279 2021,-279 2021,-211 1695,-211"/>
</g>
<g id="clust22" class="cluster">
<title>cluster_PasswordModule_exports</title>
<polygon fill="none" stroke="black" points="1881,-219 1881,-271 2013,-271 2013,-219 1881,-219"/>
</g>
<g id="clust24" class="cluster">
<title>cluster_PasswordModule_providers</title>
<polygon fill="none" stroke="black" points="1703,-219 1703,-271 1873,-271 1873,-219 1703,-219"/>
</g>
<g id="clust31" class="cluster">
<title>cluster_TransactionsModule</title>
<polygon fill="none" stroke="black" stroke-dasharray="1,5" points="711,-135 711,-203 1569,-203 1569,-135 711,-135"/>
</g>
<g id="clust34" class="cluster">
<title>cluster_TransactionsModule_exports</title>
<polygon fill="none" stroke="black" points="1201,-143 1201,-195 1561,-195 1561,-143 1201,-143"/>
</g>
<g id="clust36" class="cluster">
<title>cluster_TransactionsModule_providers</title>
<polygon fill="none" stroke="black" points="719,-143 719,-195 1193,-195 1193,-143 719,-143"/>
</g>
<g id="clust37" class="cluster">
<title>cluster_UsersModule</title>
<polygon fill="none" stroke="black" stroke-dasharray="1,5" points="8,-211 8,-279 268,-279 268,-211 8,-211"/>
</g>
<g id="clust40" class="cluster">
<title>cluster_UsersModule_exports</title>
<polygon fill="none" stroke="black" points="156,-219 156,-271 260,-271 260,-219 156,-219"/>
</g>
<g id="clust42" class="cluster">
<title>cluster_UsersModule_providers</title>
<polygon fill="none" stroke="black" points="16,-219 16,-271 148,-271 148,-219 16,-219"/>
</g>
<!-- ConfigurationModule -->
<g id="node1" class="node">
<title>ConfigurationModule</title>
<polygon fill="#8dd3c7" stroke="black" points="430.09,-122 427.09,-126 406.09,-126 403.09,-122 291.91,-122 291.91,-86 430.09,-86 430.09,-122"/>
<text text-anchor="middle" x="361" y="-99.8" font-family="Times,serif" font-size="14.00">ConfigurationModule</text>
</g>
<!-- AppModule -->
<g id="node6" class="node">
<title>AppModule</title>
<polygon fill="#8dd3c7" stroke="black" points="579.66,-328 576.66,-332 555.66,-332 552.66,-328 496.34,-328 496.34,-292 579.66,-292 579.66,-328"/>
<text text-anchor="middle" x="538" y="-305.8" font-family="Times,serif" font-size="14.00">AppModule</text>
</g>
<!-- ConfigurationModule&#45;&gt;AppModule -->
<g id="edge1" class="edge">
<title>ConfigurationModule&#45;&gt;AppModule</title>
<path fill="none" stroke="black" d="M361,-122.28C361,-172.7 361,-310 361,-310 361,-310 486.05,-310 486.05,-310"/>
<polygon fill="black" stroke="black" points="486.05,-313.5 496.05,-310 486.05,-306.5 486.05,-313.5"/>
</g>
<!-- IamModule -->
<g id="node2" class="node">
<title>IamModule</title>
<polygon fill="#8dd3c7" stroke="black" points="682.82,-263 679.82,-267 658.82,-267 655.82,-263 601.18,-263 601.18,-227 682.82,-227 682.82,-263"/>
<text text-anchor="middle" x="642" y="-240.8" font-family="Times,serif" font-size="14.00">IamModule</text>
</g>
<!-- IamModule&#45;&gt;AppModule -->
<g id="edge2" class="edge">
<title>IamModule&#45;&gt;AppModule</title>
<path fill="none" stroke="black" d="M600.99,-251C586.71,-251 574.19,-251 574.19,-251 574.19,-251 574.19,-281.98 574.19,-281.98"/>
<polygon fill="black" stroke="black" points="570.69,-281.98 574.19,-291.98 577.69,-281.98 570.69,-281.98"/>
</g>
<!-- TodoModule -->
<g id="node3" class="node">
<title>TodoModule</title>
<polygon fill="#8dd3c7" stroke="black" points="537.6,-122 534.6,-126 513.6,-126 510.6,-122 448.4,-122 448.4,-86 537.6,-86 537.6,-122"/>
<text text-anchor="middle" x="493" y="-99.8" font-family="Times,serif" font-size="14.00">TodoModule</text>
</g>
<!-- TodoModule&#45;&gt;AppModule -->
<g id="edge3" class="edge">
<title>TodoModule&#45;&gt;AppModule</title>
<path fill="none" stroke="black" d="M516.86,-122.28C516.86,-122.28 516.86,-281.76 516.86,-281.76"/>
<polygon fill="black" stroke="black" points="513.36,-281.76 516.86,-291.76 520.36,-281.76 513.36,-281.76"/>
</g>
<!-- TransactionsModule -->
<g id="node4" class="node">
<title>TransactionsModule</title>
<polygon fill="#8dd3c7" stroke="black" points="686.58,-122 683.58,-126 662.58,-126 659.58,-122 555.42,-122 555.42,-86 686.58,-86 686.58,-122"/>
<text text-anchor="middle" x="621" y="-99.8" font-family="Times,serif" font-size="14.00">TransactionsModule</text>
</g>
<!-- UsersModule -->
<g id="node5" class="node">
<title>UsersModule</title>
<polygon fill="#8dd3c7" stroke="black" points="648.92,-187 645.92,-191 624.92,-191 621.92,-187 557.08,-187 557.08,-151 648.92,-151 648.92,-187"/>
<text text-anchor="middle" x="603" y="-164.8" font-family="Times,serif" font-size="14.00">UsersModule</text>
</g>
<!-- TransactionsModule&#45;&gt;UsersModule -->
<g id="edge15" class="edge">
<title>TransactionsModule&#45;&gt;UsersModule</title>
<path fill="none" stroke="black" d="M603,-122.11C603,-122.11 603,-140.99 603,-140.99"/>
<polygon fill="black" stroke="black" points="599.5,-140.99 603,-150.99 606.5,-140.99 599.5,-140.99"/>
</g>
<!-- TransactionsModule&#45;&gt;AppModule -->
<g id="edge4" class="edge">
<title>TransactionsModule&#45;&gt;AppModule</title>
<path fill="none" stroke="black" d="M555.34,-104C549.94,-104 546.51,-104 546.51,-104 546.51,-104 546.51,-281.72 546.51,-281.72"/>
<polygon fill="black" stroke="black" points="543.01,-281.72 546.51,-291.72 550.01,-281.72 543.01,-281.72"/>
</g>
<!-- SharedTransactionsService  -->
<g id="node11" class="node">
<title>SharedTransactionsService </title>
<polygon fill="#fb8072" stroke="black" points="1552.88,-187 1381.12,-187 1381.12,-151 1552.88,-151 1552.88,-187"/>
<text text-anchor="middle" x="1467" y="-164.8" font-family="Times,serif" font-size="14.00">SharedTransactionsService </text>
</g>
<!-- TransactionsModule&#45;&gt;SharedTransactionsService  -->
<g id="edge11" class="edge">
<title>TransactionsModule&#45;&gt;SharedTransactionsService </title>
<path fill="none" stroke="black" stroke-dasharray="5,2" d="M686.68,-95C885.45,-95 1467,-95 1467,-95 1467,-95 1467,-140.71 1467,-140.71"/>
<polygon fill="black" stroke="black" points="1463.5,-140.71 1467,-150.71 1470.5,-140.71 1463.5,-140.71"/>
</g>
<!-- UserTransactionService  -->
<g id="node12" class="node">
<title>UserTransactionService </title>
<polygon fill="#fb8072" stroke="black" points="1362.99,-187 1209.01,-187 1209.01,-151 1362.99,-151 1362.99,-187"/>
<text text-anchor="middle" x="1286" y="-164.8" font-family="Times,serif" font-size="14.00">UserTransactionService </text>
</g>
<!-- TransactionsModule&#45;&gt;UserTransactionService  -->
<g id="edge12" class="edge">
<title>TransactionsModule&#45;&gt;UserTransactionService </title>
<path fill="none" stroke="black" stroke-dasharray="5,2" d="M686.58,-104C854.35,-104 1286,-104 1286,-104 1286,-104 1286,-140.89 1286,-140.89"/>
<polygon fill="black" stroke="black" points="1282.5,-140.89 1286,-150.89 1289.5,-140.89 1282.5,-140.89"/>
</g>
<!-- UsersModule&#45;&gt;IamModule -->
<g id="edge7" class="edge">
<title>UsersModule&#45;&gt;IamModule</title>
<path fill="none" stroke="black" d="M625.03,-187.01C625.03,-187.01 625.03,-216.85 625.03,-216.85"/>
<polygon fill="black" stroke="black" points="621.53,-216.85 625.03,-226.85 628.53,-216.85 621.53,-216.85"/>
</g>
<!-- UsersModule&#45;&gt;AppModule -->
<g id="edge5" class="edge">
<title>UsersModule&#45;&gt;AppModule</title>
<path fill="none" stroke="black" d="M568.56,-187.14C568.56,-187.14 568.56,-281.93 568.56,-281.93"/>
<polygon fill="black" stroke="black" points="565.06,-281.92 568.56,-291.93 572.06,-281.93 565.06,-281.92"/>
</g>
<!-- UserService  -->
<g id="node15" class="node">
<title>UserService </title>
<polygon fill="#fb8072" stroke="black" points="251.9,-263 164.1,-263 164.1,-227 251.9,-227 251.9,-263"/>
<text text-anchor="middle" x="208" y="-240.8" font-family="Times,serif" font-size="14.00">UserService </text>
</g>
<!-- UsersModule&#45;&gt;UserService  -->
<g id="edge16" class="edge">
<title>UsersModule&#45;&gt;UserService </title>
<path fill="none" stroke="black" stroke-dasharray="5,2" d="M562.92,-187.03C562.92,-207.77 562.92,-239 562.92,-239 562.92,-239 262.23,-239 262.23,-239"/>
<polygon fill="black" stroke="black" points="262.23,-235.5 252.23,-239 262.23,-242.5 262.23,-235.5"/>
</g>
<!-- PasswordModule -->
<g id="node7" class="node">
<title>PasswordModule</title>
<polygon fill="#8dd3c7" stroke="black" points="1924.7,-187 1921.7,-191 1900.7,-191 1897.7,-187 1811.3,-187 1811.3,-151 1924.7,-151 1924.7,-187"/>
<text text-anchor="middle" x="1868" y="-164.8" font-family="Times,serif" font-size="14.00">PasswordModule</text>
</g>
<!-- PasswordModule&#45;&gt;IamModule -->
<g id="edge6" class="edge">
<title>PasswordModule&#45;&gt;IamModule</title>
<path fill="none" stroke="black" d="M1829.27,-187.11C1829.27,-196.9 1829.27,-207 1829.27,-207 1829.27,-207 660.03,-207 660.03,-207 660.03,-207 660.03,-216.89 660.03,-216.89"/>
<polygon fill="black" stroke="black" points="656.53,-216.89 660.03,-226.89 663.53,-216.89 656.53,-216.89"/>
</g>
<!-- PasswordService  -->
<g id="node9" class="node">
<title>PasswordService </title>
<polygon fill="#fb8072" stroke="black" points="2004.63,-263 1889.37,-263 1889.37,-227 2004.63,-227 2004.63,-263"/>
<text text-anchor="middle" x="1947" y="-240.8" font-family="Times,serif" font-size="14.00">PasswordService </text>
</g>
<!-- PasswordModule&#45;&gt;PasswordService  -->
<g id="edge9" class="edge">
<title>PasswordModule&#45;&gt;PasswordService </title>
<path fill="none" stroke="black" stroke-dasharray="5,2" d="M1907.02,-187.01C1907.02,-187.01 1907.02,-216.85 1907.02,-216.85"/>
<polygon fill="black" stroke="black" points="1903.52,-216.85 1907.02,-226.85 1910.52,-216.85 1903.52,-216.85"/>
</g>
<!-- AuthenticationService -->
<g id="node8" class="node">
<title>AuthenticationService</title>
<ellipse fill="#fdb462" stroke="black" cx="1690" cy="-169" rx="97.27" ry="18"/>
<text text-anchor="middle" x="1690" y="-164.8" font-family="Times,serif" font-size="14.00">AuthenticationService</text>
</g>
<!-- AuthenticationService&#45;&gt;IamModule -->
<g id="edge8" class="edge">
<title>AuthenticationService&#45;&gt;IamModule</title>
<path fill="none" stroke="black" d="M1651.81,-185.87C1651.81,-208.26 1651.81,-245 1651.81,-245 1651.81,-245 692.84,-245 692.84,-245"/>
<polygon fill="black" stroke="black" points="692.84,-241.5 682.84,-245 692.84,-248.5 692.84,-241.5"/>
</g>
<!-- PasswordService -->
<g id="node10" class="node">
<title>PasswordService</title>
<ellipse fill="#fdb462" stroke="black" cx="1788" cy="-245" rx="77" ry="18"/>
<text text-anchor="middle" x="1788" y="-240.8" font-family="Times,serif" font-size="14.00">PasswordService</text>
</g>
<!-- PasswordService&#45;&gt;PasswordModule -->
<g id="edge10" class="edge">
<title>PasswordService&#45;&gt;PasswordModule</title>
<path fill="none" stroke="black" d="M1847.13,-233.46C1847.13,-233.46 1847.13,-197.17 1847.13,-197.17"/>
<polygon fill="black" stroke="black" points="1850.63,-197.17 1847.13,-187.17 1843.63,-197.17 1850.63,-197.17"/>
</g>
<!-- SharedTransactionsService -->
<g id="node13" class="node">
<title>SharedTransactionsService</title>
<ellipse fill="#fdb462" stroke="black" cx="1069" cy="-169" rx="116.29" ry="18"/>
<text text-anchor="middle" x="1069" y="-164.8" font-family="Times,serif" font-size="14.00">SharedTransactionsService</text>
</g>
<!-- SharedTransactionsService&#45;&gt;TransactionsModule -->
<g id="edge13" class="edge">
<title>SharedTransactionsService&#45;&gt;TransactionsModule</title>
<path fill="none" stroke="black" d="M1069,-150.97C1069,-134.6 1069,-113 1069,-113 1069,-113 696.62,-113 696.62,-113"/>
<polygon fill="black" stroke="black" points="696.62,-109.5 686.62,-113 696.62,-116.5 696.62,-109.5"/>
</g>
<!-- UserTransactionService -->
<g id="node14" class="node">
<title>UserTransactionService</title>
<ellipse fill="#fdb462" stroke="black" cx="831" cy="-169" rx="103.61" ry="18"/>
<text text-anchor="middle" x="831" y="-164.8" font-family="Times,serif" font-size="14.00">UserTransactionService</text>
</g>
<!-- UserTransactionService&#45;&gt;TransactionsModule -->
<g id="edge14" class="edge">
<title>UserTransactionService&#45;&gt;TransactionsModule</title>
<path fill="none" stroke="black" d="M727.18,-169C696.69,-169 671.34,-169 671.34,-169 671.34,-169 671.34,-132.11 671.34,-132.11"/>
<polygon fill="black" stroke="black" points="674.84,-132.11 671.34,-122.11 667.84,-132.11 674.84,-132.11"/>
</g>
<!-- UserService -->
<g id="node16" class="node">
<title>UserService</title>
<ellipse fill="#fdb462" stroke="black" cx="82" cy="-245" rx="58.44" ry="18"/>
<text text-anchor="middle" x="82" y="-240.8" font-family="Times,serif" font-size="14.00">UserService</text>
</g>
<!-- UserService&#45;&gt;UsersModule -->
<g id="edge17" class="edge">
<title>UserService&#45;&gt;UsersModule</title>
<path fill="none" stroke="black" d="M82,-226.99C82,-204.51 82,-169 82,-169 82,-169 547.22,-169 547.22,-169"/>
<polygon fill="black" stroke="black" points="547.22,-172.5 557.22,-169 547.22,-165.5 547.22,-172.5"/>
</g>
</g>
</svg>
