<?xml version="1.0" encoding="UTF-8" standalone="no"?>
<!DOCTYPE svg PUBLIC "-//W3C//DTD SVG 1.1//EN"
 "http://www.w3.org/Graphics/SVG/1.1/DTD/svg11.dtd">
<!-- Generated by graphviz version 2.47.0 (20210316.0004)
 -->
<!-- Title: dependencies Pages: 1 -->
<svg width="1547pt" height="352pt"
 viewBox="0.00 0.00 1547.00 352.00" xmlns="http://www.w3.org/2000/svg" xmlns:xlink="http://www.w3.org/1999/xlink">
<g id="graph0" class="graph" transform="scale(1 1) rotate(0) translate(4 348)">
<title>dependencies</title>
<polygon fill="white" stroke="transparent" points="-4,4 -4,-348 1543,-348 1543,4 -4,4"/>
<text text-anchor="start" x="748.51" y="-42.4" font-family="Times-12" font-weight="bold" font-size="14.00">Legend</text>
<polygon fill="#ffffb3" stroke="transparent" points="535.5,-10 535.5,-30 555.5,-30 555.5,-10 535.5,-10"/>
<text text-anchor="start" x="559.13" y="-15.4" font-family="Times-12" font-size="14.00"> &#160;Declarations</text>
<polygon fill="#8dd3c7" stroke="transparent" points="648.5,-10 648.5,-30 668.5,-30 668.5,-10 648.5,-10"/>
<text text-anchor="start" x="672.23" y="-15.4" font-family="Times-12" font-size="14.00"> &#160;Module</text>
<polygon fill="#80b1d3" stroke="transparent" points="734.5,-10 734.5,-30 754.5,-30 754.5,-10 734.5,-10"/>
<text text-anchor="start" x="758.28" y="-15.4" font-family="Times-12" font-size="14.00"> &#160;Bootstrap</text>
<polygon fill="#fdb462" stroke="transparent" points="831.5,-10 831.5,-30 851.5,-30 851.5,-10 831.5,-10"/>
<text text-anchor="start" x="855.17" y="-15.4" font-family="Times-12" font-size="14.00"> &#160;Providers</text>
<polygon fill="#fb8072" stroke="transparent" points="927.5,-10 927.5,-30 947.5,-30 947.5,-10 927.5,-10"/>
<text text-anchor="start" x="951.23" y="-15.4" font-family="Times-12" font-size="14.00"> &#160;Exports</text>
<g id="clust1" class="cluster">
<title>cluster_AppModule</title>
<polygon fill="none" stroke="black" stroke-dasharray="1,5" points="276,-70 276,-336 703,-336 703,-70 276,-70"/>
</g>
<g id="clust3" class="cluster">
<title>cluster_AppModule_imports</title>
<polygon fill="none" stroke="black" points="284,-78 284,-271 695,-271 695,-78 284,-78"/>
</g>
<g id="clust13" class="cluster">
<title>cluster_IamModule</title>
<polygon fill="none" stroke="black" stroke-dasharray="1,5" points="1087,-135 1087,-203 1451,-203 1451,-135 1087,-135"/>
</g>
<g id="clust15" class="cluster">
<title>cluster_IamModule_imports</title>
<polygon fill="none" stroke="black" points="1313,-143 1313,-195 1443,-195 1443,-143 1313,-143"/>
</g>
<g id="clust18" class="cluster">
<title>cluster_IamModule_providers</title>
<polygon fill="none" stroke="black" points="1095,-143 1095,-195 1305,-195 1305,-143 1095,-143"/>
</g>
<g id="clust19" class="cluster">
<title>cluster_PasswordModule</title>
<polygon fill="none" stroke="black" stroke-dasharray="1,5" points="1205,-211 1205,-279 1531,-279 1531,-211 1205,-211"/>
</g>
<g id="clust22" class="cluster">
<title>cluster_PasswordModule_exports</title>
<polygon fill="none" stroke="black" points="1391,-219 1391,-271 1523,-271 1523,-219 1391,-219"/>
</g>
<g id="clust24" class="cluster">
<title>cluster_PasswordModule_providers</title>
<polygon fill="none" stroke="black" points="1213,-219 1213,-271 1383,-271 1383,-219 1213,-219"/>
</g>
<g id="clust31" class="cluster">
<title>cluster_TransactionsModule</title>
<polygon fill="none" stroke="black" stroke-dasharray="1,5" points="711,-135 711,-203 1079,-203 1079,-135 711,-135"/>
</g>
<g id="clust34" class="cluster">
<title>cluster_TransactionsModule_exports</title>
<polygon fill="none" stroke="black" points="921,-143 921,-195 1071,-195 1071,-143 921,-143"/>
</g>
<g id="clust36" class="cluster">
<title>cluster_TransactionsModule_providers</title>
<polygon fill="none" stroke="black" points="719,-143 719,-195 913,-195 913,-143 719,-143"/>
</g>
<g id="clust37" class="cluster">
<title>cluster_UsersModule</title>
<polygon fill="none" stroke="black" stroke-dasharray="1,5" points="8,-211 8,-279 268,-279 268,-211 8,-211"/>
</g>
<g id="clust40" class="cluster">
<title>cluster_UsersModule_exports</title>
<polygon fill="none" stroke="black" points="156,-219 156,-271 260,-271 260,-219 156,-219"/>
</g>
<g id="clust42" class="cluster">
<title>cluster_UsersModule_providers</title>
<polygon fill="none" stroke="black" points="16,-219 16,-271 148,-271 148,-219 16,-219"/>
</g>
<!-- ConfigurationModule -->
<g id="node1" class="node">
<title>ConfigurationModule</title>
<polygon fill="#8dd3c7" stroke="black" points="430.09,-122 427.09,-126 406.09,-126 403.09,-122 291.91,-122 291.91,-86 430.09,-86 430.09,-122"/>
<text text-anchor="middle" x="361" y="-99.8" font-family="Times,serif" font-size="14.00">ConfigurationModule</text>
</g>
<!-- AppModule -->
<g id="node6" class="node">
<title>AppModule</title>
<polygon fill="#8dd3c7" stroke="black" points="579.66,-328 576.66,-332 555.66,-332 552.66,-328 496.34,-328 496.34,-292 579.66,-292 579.66,-328"/>
<text text-anchor="middle" x="538" y="-305.8" font-family="Times,serif" font-size="14.00">AppModule</text>
</g>
<!-- ConfigurationModule&#45;&gt;AppModule -->
<g id="edge1" class="edge">
<title>ConfigurationModule&#45;&gt;AppModule</title>
<path fill="none" stroke="black" d="M361,-122.28C361,-172.7 361,-310 361,-310 361,-310 486.05,-310 486.05,-310"/>
<polygon fill="black" stroke="black" points="486.05,-313.5 496.05,-310 486.05,-306.5 486.05,-313.5"/>
</g>
<!-- IamModule -->
<g id="node2" class="node">
<title>IamModule</title>
<polygon fill="#8dd3c7" stroke="black" points="682.82,-263 679.82,-267 658.82,-267 655.82,-263 601.18,-263 601.18,-227 682.82,-227 682.82,-263"/>
<text text-anchor="middle" x="642" y="-240.8" font-family="Times,serif" font-size="14.00">IamModule</text>
</g>
<!-- IamModule&#45;&gt;AppModule -->
<g id="edge2" class="edge">
<title>IamModule&#45;&gt;AppModule</title>
<path fill="none" stroke="black" d="M600.99,-251C586.71,-251 574.19,-251 574.19,-251 574.19,-251 574.19,-281.98 574.19,-281.98"/>
<polygon fill="black" stroke="black" points="570.69,-281.98 574.19,-291.98 577.69,-281.98 570.69,-281.98"/>
</g>
<!-- TodoModule -->
<g id="node3" class="node">
<title>TodoModule</title>
<polygon fill="#8dd3c7" stroke="black" points="537.6,-122 534.6,-126 513.6,-126 510.6,-122 448.4,-122 448.4,-86 537.6,-86 537.6,-122"/>
<text text-anchor="middle" x="493" y="-99.8" font-family="Times,serif" font-size="14.00">TodoModule</text>
</g>
<!-- TodoModule&#45;&gt;AppModule -->
<g id="edge3" class="edge">
<title>TodoModule&#45;&gt;AppModule</title>
<path fill="none" stroke="black" d="M516.86,-122.28C516.86,-122.28 516.86,-281.76 516.86,-281.76"/>
<polygon fill="black" stroke="black" points="513.36,-281.76 516.86,-291.76 520.36,-281.76 513.36,-281.76"/>
</g>
<!-- TransactionsModule -->
<g id="node4" class="node">
<title>TransactionsModule</title>
<polygon fill="#8dd3c7" stroke="black" points="686.58,-122 683.58,-126 662.58,-126 659.58,-122 555.42,-122 555.42,-86 686.58,-86 686.58,-122"/>
<text text-anchor="middle" x="621" y="-99.8" font-family="Times,serif" font-size="14.00">TransactionsModule</text>
</g>
<!-- UsersModule -->
<g id="node5" class="node">
<title>UsersModule</title>
<polygon fill="#8dd3c7" stroke="black" points="648.92,-187 645.92,-191 624.92,-191 621.92,-187 557.08,-187 557.08,-151 648.92,-151 648.92,-187"/>
<text text-anchor="middle" x="603" y="-164.8" font-family="Times,serif" font-size="14.00">UsersModule</text>
</g>
<!-- TransactionsModule&#45;&gt;UsersModule -->
<g id="edge13" class="edge">
<title>TransactionsModule&#45;&gt;UsersModule</title>
<path fill="none" stroke="black" d="M603,-122.11C603,-122.11 603,-140.99 603,-140.99"/>
<polygon fill="black" stroke="black" points="599.5,-140.99 603,-150.99 606.5,-140.99 599.5,-140.99"/>
</g>
<!-- TransactionsModule&#45;&gt;AppModule -->
<g id="edge4" class="edge">
<title>TransactionsModule&#45;&gt;AppModule</title>
<path fill="none" stroke="black" d="M555.34,-104C549.94,-104 546.51,-104 546.51,-104 546.51,-104 546.51,-281.72 546.51,-281.72"/>
<polygon fill="black" stroke="black" points="543.01,-281.72 546.51,-291.72 550.01,-281.72 543.01,-281.72"/>
</g>
<!-- SharedTransactionsService  -->
<g id="node11" class="node">
<title>SharedTransactionsService </title>
<polygon fill="#fb8072" stroke="black" points="1062.51,-187 929.49,-187 929.49,-151 1062.51,-151 1062.51,-187"/>
<text text-anchor="middle" x="996" y="-164.8" font-family="Times,serif" font-size="14.00">SharedTransactionsService </text>
</g>
<!-- TransactionsModule&#45;&gt;SharedTransactionsService  -->
<g id="edge11" class="edge">
<title>TransactionsModule&#45;&gt;SharedTransactionsService </title>
<path fill="none" stroke="black" stroke-dasharray="5,2" d="M686.75,-104C794.3,-104 996,-104 996,-104 996,-104 996,-140.89 996,-140.89"/>
<polygon fill="black" stroke="black" points="992.5,-140.89 996,-150.89 999.5,-140.89 992.5,-140.89"/>
</g>
<!-- UsersModule&#45;&gt;IamModule -->
<g id="edge7" class="edge">
<title>UsersModule&#45;&gt;IamModule</title>
<path fill="none" stroke="black" d="M625.03,-187.01C625.03,-187.01 625.03,-216.85 625.03,-216.85"/>
<polygon fill="black" stroke="black" points="621.53,-216.85 625.03,-226.85 628.53,-216.85 621.53,-216.85"/>
</g>
<!-- UsersModule&#45;&gt;AppModule -->
<g id="edge5" class="edge">
<title>UsersModule&#45;&gt;AppModule</title>
<path fill="none" stroke="black" d="M568.56,-187.14C568.56,-187.14 568.56,-281.93 568.56,-281.93"/>
<polygon fill="black" stroke="black" points="565.06,-281.92 568.56,-291.93 572.06,-281.93 565.06,-281.92"/>
</g>
<!-- UserService  -->
<g id="node13" class="node">
<title>UserService </title>
<polygon fill="#fb8072" stroke="black" points="251.9,-263 164.1,-263 164.1,-227 251.9,-227 251.9,-263"/>
<text text-anchor="middle" x="208" y="-240.8" font-family="Times,serif" font-size="14.00">UserService </text>
</g>
<!-- UsersModule&#45;&gt;UserService  -->
<g id="edge14" class="edge">
<title>UsersModule&#45;&gt;UserService </title>
<path fill="none" stroke="black" stroke-dasharray="5,2" d="M562.92,-187.03C562.92,-207.77 562.92,-239 562.92,-239 562.92,-239 262.23,-239 262.23,-239"/>
<polygon fill="black" stroke="black" points="262.23,-235.5 252.23,-239 262.23,-242.5 262.23,-235.5"/>
</g>
<!-- PasswordModule -->
<g id="node7" class="node">
<title>PasswordModule</title>
<polygon fill="#8dd3c7" stroke="black" points="1434.7,-187 1431.7,-191 1410.7,-191 1407.7,-187 1321.3,-187 1321.3,-151 1434.7,-151 1434.7,-187"/>
<text text-anchor="middle" x="1378" y="-164.8" font-family="Times,serif" font-size="14.00">PasswordModule</text>
</g>
<!-- PasswordModule&#45;&gt;IamModule -->
<g id="edge6" class="edge">
<title>PasswordModule&#45;&gt;IamModule</title>
<path fill="none" stroke="black" d="M1339.27,-187.11C1339.27,-196.9 1339.27,-207 1339.27,-207 1339.27,-207 660.03,-207 660.03,-207 660.03,-207 660.03,-216.89 660.03,-216.89"/>
<polygon fill="black" stroke="black" points="656.53,-216.89 660.03,-226.89 663.53,-216.89 656.53,-216.89"/>
</g>
<!-- PasswordService  -->
<g id="node9" class="node">
<title>PasswordService </title>
<polygon fill="#fb8072" stroke="black" points="1514.63,-263 1399.37,-263 1399.37,-227 1514.63,-227 1514.63,-263"/>
<text text-anchor="middle" x="1457" y="-240.8" font-family="Times,serif" font-size="14.00">PasswordService </text>
</g>
<!-- PasswordModule&#45;&gt;PasswordService  -->
<g id="edge9" class="edge">
<title>PasswordModule&#45;&gt;PasswordService </title>
<path fill="none" stroke="black" stroke-dasharray="5,2" d="M1417.02,-187.01C1417.02,-187.01 1417.02,-216.85 1417.02,-216.85"/>
<polygon fill="black" stroke="black" points="1413.52,-216.85 1417.02,-226.85 1420.52,-216.85 1413.52,-216.85"/>
</g>
<!-- AuthenticationService -->
<g id="node8" class="node">
<title>AuthenticationService</title>
<ellipse fill="#fdb462" stroke="black" cx="1200" cy="-169" rx="97.27" ry="18"/>
<text text-anchor="middle" x="1200" y="-164.8" font-family="Times,serif" font-size="14.00">AuthenticationService</text>
</g>
<!-- AuthenticationService&#45;&gt;IamModule -->
<g id="edge8" class="edge">
<title>AuthenticationService&#45;&gt;IamModule</title>
<path fill="none" stroke="black" d="M1161.81,-185.87C1161.81,-208.26 1161.81,-245 1161.81,-245 1161.81,-245 692.79,-245 692.79,-245"/>
<polygon fill="black" stroke="black" points="692.79,-241.5 682.79,-245 692.79,-248.5 692.79,-241.5"/>
</g>
<!-- PasswordService -->
<g id="node10" class="node">
<title>PasswordService</title>
<ellipse fill="#fdb462" stroke="black" cx="1298" cy="-245" rx="77" ry="18"/>
<text text-anchor="middle" x="1298" y="-240.8" font-family="Times,serif" font-size="14.00">PasswordService</text>
</g>
<!-- PasswordService&#45;&gt;PasswordModule -->
<g id="edge10" class="edge">
<title>PasswordService&#45;&gt;PasswordModule</title>
<path fill="none" stroke="black" d="M1357.13,-233.46C1357.13,-233.46 1357.13,-197.17 1357.13,-197.17"/>
<polygon fill="black" stroke="black" points="1360.63,-197.17 1357.13,-187.17 1353.63,-197.17 1360.63,-197.17"/>
</g>
<!-- SharedTransactionsService -->
<g id="node12" class="node">
<title>SharedTransactionsService</title>
<ellipse fill="#fdb462" stroke="black" cx="816" cy="-169" rx="89.16" ry="18"/>
<text text-anchor="middle" x="816" y="-164.8" font-family="Times,serif" font-size="14.00">SharedTransactionsService</text>
</g>
<!-- SharedTransactionsService&#45;&gt;TransactionsModule -->
<g id="edge12" class="edge">
<title>SharedTransactionsService&#45;&gt;TransactionsModule</title>
<path fill="none" stroke="black" d="M726.44,-169C696.85,-169 671.34,-169 671.34,-169 671.34,-169 671.34,-132.11 671.34,-132.11"/>
<polygon fill="black" stroke="black" points="674.84,-132.11 671.34,-122.11 667.84,-132.11 674.84,-132.11"/>
</g>
<!-- UserService -->
<g id="node14" class="node">
<title>UserService</title>
<ellipse fill="#fdb462" stroke="black" cx="82" cy="-245" rx="58.44" ry="18"/>
<text text-anchor="middle" x="82" y="-240.8" font-family="Times,serif" font-size="14.00">UserService</text>
</g>
<!-- UserService&#45;&gt;UsersModule -->
<g id="edge15" class="edge">
<title>UserService&#45;&gt;UsersModule</title>
<path fill="none" stroke="black" d="M82,-226.99C82,-204.51 82,-169 82,-169 82,-169 547.22,-169 547.22,-169"/>
<polygon fill="black" stroke="black" points="547.22,-172.5 557.22,-169 547.22,-165.5 547.22,-172.5"/>
</g>
</g>
</svg>
