<?xml version="1.0" encoding="UTF-8" standalone="no"?>
<!DOCTYPE svg PUBLIC "-//W3C//DTD SVG 1.1//EN"
 "http://www.w3.org/Graphics/SVG/1.1/DTD/svg11.dtd">
<!-- Generated by graphviz version 2.47.0 (20210316.0004)
 -->
<!-- Title: dependencies Pages: 1 -->
<svg width="514pt" height="284pt"
 viewBox="0.00 0.00 514.00 284.00" xmlns="http://www.w3.org/2000/svg" xmlns:xlink="http://www.w3.org/1999/xlink">
<g id="graph0" class="graph" transform="scale(1 1) rotate(0) translate(4 280)">
<title>dependencies</title>
<polygon fill="white" stroke="transparent" points="-4,4 -4,-280 510,-280 510,4 -4,4"/>
<text text-anchor="start" x="232.01" y="-42.4" font-family="Times-12" font-weight="bold" font-size="14.00">Legend</text>
<polygon fill="#ffffb3" stroke="transparent" points="19,-10 19,-30 39,-30 39,-10 19,-10"/>
<text text-anchor="start" x="42.63" y="-15.4" font-family="Times-12" font-size="14.00"> &#160;Declarations</text>
<polygon fill="#8dd3c7" stroke="transparent" points="132,-10 132,-30 152,-30 152,-10 132,-10"/>
<text text-anchor="start" x="155.73" y="-15.4" font-family="Times-12" font-size="14.00"> &#160;Module</text>
<polygon fill="#80b1d3" stroke="transparent" points="218,-10 218,-30 238,-30 238,-10 218,-10"/>
<text text-anchor="start" x="241.78" y="-15.4" font-family="Times-12" font-size="14.00"> &#160;Bootstrap</text>
<polygon fill="#fdb462" stroke="transparent" points="315,-10 315,-30 335,-30 335,-10 315,-10"/>
<text text-anchor="start" x="338.67" y="-15.4" font-family="Times-12" font-size="14.00"> &#160;Providers</text>
<polygon fill="#fb8072" stroke="transparent" points="411,-10 411,-30 431,-30 431,-10 411,-10"/>
<text text-anchor="start" x="434.73" y="-15.4" font-family="Times-12" font-size="14.00"> &#160;Exports</text>
<g id="clust1" class="cluster">
<title>cluster_TransactionsModule</title>
<polygon fill="none" stroke="black" stroke-dasharray="1,5" points="8,-70 8,-268 498,-268 498,-70 8,-70"/>
</g>
<g id="clust4" class="cluster">
<title>cluster_TransactionsModule_exports</title>
<polygon fill="none" stroke="black" points="51,-208 51,-260 411,-260 411,-208 51,-208"/>
</g>
<g id="clust6" class="cluster">
<title>cluster_TransactionsModule_providers</title>
<polygon fill="none" stroke="black" points="16,-78 16,-130 490,-130 490,-78 16,-78"/>
</g>
<!-- SharedTransactionsService  -->
<g id="node1" class="node">
<title>SharedTransactionsService </title>
<polygon fill="#fb8072" stroke="black" points="402.88,-252 231.12,-252 231.12,-216 402.88,-216 402.88,-252"/>
<text text-anchor="middle" x="317" y="-229.8" font-family="Times,serif" font-size="14.00">SharedTransactionsService </text>
</g>
<!-- UserTransactionService  -->
<g id="node2" class="node">
<title>UserTransactionService </title>
<polygon fill="#fb8072" stroke="black" points="212.99,-252 59.01,-252 59.01,-216 212.99,-216 212.99,-252"/>
<text text-anchor="middle" x="136" y="-229.8" font-family="Times,serif" font-size="14.00">UserTransactionService </text>
</g>
<!-- TransactionsModule -->
<g id="node3" class="node">
<title>TransactionsModule</title>
<polygon fill="#8dd3c7" stroke="black" points="236.58,-187 233.58,-191 212.58,-191 209.58,-187 105.42,-187 105.42,-151 236.58,-151 236.58,-187"/>
<text text-anchor="middle" x="171" y="-164.8" font-family="Times,serif" font-size="14.00">TransactionsModule</text>
</g>
<!-- TransactionsModule&#45;&gt;SharedTransactionsService  -->
<g id="edge1" class="edge">
<title>TransactionsModule&#45;&gt;SharedTransactionsService </title>
<path fill="none" stroke="black" stroke-dasharray="5,2" d="M237.04,-175C240.87,-175 243.2,-175 243.2,-175 243.2,-175 243.2,-205.98 243.2,-205.98"/>
<polygon fill="black" stroke="black" points="239.7,-205.98 243.2,-215.98 246.7,-205.98 239.7,-205.98"/>
</g>
<!-- TransactionsModule&#45;&gt;UserTransactionService  -->
<g id="edge2" class="edge">
<title>TransactionsModule&#45;&gt;UserTransactionService </title>
<path fill="none" stroke="black" stroke-dasharray="5,2" d="M159.23,-187.11C159.23,-187.11 159.23,-205.99 159.23,-205.99"/>
<polygon fill="black" stroke="black" points="155.73,-205.99 159.23,-215.99 162.73,-205.99 155.73,-205.99"/>
</g>
<!-- SharedTransactionsService -->
<g id="node4" class="node">
<title>SharedTransactionsService</title>
<ellipse fill="#fdb462" stroke="black" cx="366" cy="-104" rx="116.29" ry="18"/>
<text text-anchor="middle" x="366" y="-99.8" font-family="Times,serif" font-size="14.00">SharedTransactionsService</text>
</g>
<!-- SharedTransactionsService&#45;&gt;TransactionsModule -->
<g id="edge3" class="edge">
<title>SharedTransactionsService&#45;&gt;TransactionsModule</title>
<path fill="none" stroke="black" d="M326.4,-121.07C326.4,-138.49 326.4,-163 326.4,-163 326.4,-163 246.9,-163 246.9,-163"/>
<polygon fill="black" stroke="black" points="246.9,-159.5 236.9,-163 246.9,-166.5 246.9,-159.5"/>
</g>
<!-- UserTransactionService -->
<g id="node5" class="node">
<title>UserTransactionService</title>
<ellipse fill="#fdb462" stroke="black" cx="128" cy="-104" rx="103.61" ry="18"/>
<text text-anchor="middle" x="128" y="-99.8" font-family="Times,serif" font-size="14.00">UserTransactionService</text>
</g>
<!-- UserTransactionService&#45;&gt;TransactionsModule -->
<g id="edge4" class="edge">
<title>UserTransactionService&#45;&gt;TransactionsModule</title>
<path fill="none" stroke="black" d="M168.63,-120.74C168.63,-120.74 168.63,-140.72 168.63,-140.72"/>
<polygon fill="black" stroke="black" points="165.13,-140.72 168.63,-150.72 172.13,-140.72 165.13,-140.72"/>
</g>
</g>
</svg>
